<svg xmlns="http://www.w3.org/2000/svg" width="24" height="24" viewBox="0 0 24 24"><path fill="currentColor" d="M8 9q-.425 0-.713-.288T7 8q0-.425.288-.713T8 7h12q.425 0 .713.288T21 8q0 .425-.288.713T20 9H8Zm0 4q-.425 0-.713-.288T7 12q0-.425.288-.713T8 11h12q.425 0 .713.288T21 12q0 .425-.288.713T20 13H8Zm0 4q-.425 0-.713-.288T7 16q0-.425.288-.713T8 15h12q.425 0 .713.288T21 16q0 .425-.288.713T20 17H8ZM4 9q-.425 0-.713-.288T3 8q0-.425.288-.713T4 7q.425 0 .713.288T5 8q0 .425-.288.713T4 9Zm0 4q-.425 0-.713-.288T3 12q0-.425.288-.713T4 11q.425 0 .713.288T5 12q0 .425-.288.713T4 13Zm0 4q-.425 0-.713-.288T3 16q0-.425.288-.713T4 15q.425 0 .713.288T5 16q0 .425-.288.713T4 17Z"/></svg>